<!DOCTYPE svg PUBLIC "-//W3C//DTD SVG 1.1//EN" "http://www.w3.org/Graphics/SVG/1.1/DTD/svg11.dtd">

<!-- Uploaded to: SVG Repo, www.svgrepo.com, Transformed by: SVG Repo Mixer Tools -->
<svg fill="#000000" version="1.1" id="Capa_1" xmlns="http://www.w3.org/2000/svg" xmlns:xlink="http://www.w3.org/1999/xlink" width="24px" height="24px" viewBox="0 0 31.326 31.327" xml:space="preserve">

<g id="SVGRepo_bgCarrier" stroke-width="0"/>

<g id="SVGRepo_tracerCarrier" stroke-linecap="round" stroke-linejoin="round"/>

<g id="SVGRepo_iconCarrier"> <g> <g> <path d="M16.309,7.249V6.766c0-0.357-0.289-0.646-0.646-0.646c-0.357,0-0.646,0.289-0.646,0.646v0.483 c-5.137,0.259-9.309,3.588-10.06,7.878c-0.021,0.118,0.025,0.238,0.119,0.313c0.094,0.074,0.221,0.092,0.331,0.045 c0.471-0.201,1.049-0.319,1.674-0.319c1.124,0,2.095,0.381,2.563,0.937c0.061,0.072,0.15,0.115,0.245,0.117 c0.095,0,0.185-0.039,0.248-0.109c0.498-0.553,1.544-0.934,2.666-0.934c0.894,0,1.689,0.243,2.214,0.622v6.479 c0,0.904-0.734,1.639-1.636,1.639c-0.903,0-1.638-0.734-1.638-1.639c0-0.355-0.289-0.645-0.646-0.645 c-0.358,0-0.647,0.289-0.647,0.645c0,1.615,1.315,2.931,2.931,2.931c1.615,0,2.93-1.315,2.93-2.931v-6.49 c0.523-0.378,1.319-0.621,2.213-0.621c1.127,0,2.179,0.385,2.673,0.941c0.063,0.07,0.153,0.111,0.247,0.111 c0.095-0.002,0.185-0.043,0.246-0.115c0.472-0.549,1.438-0.926,2.556-0.926c0.626,0,1.205,0.118,1.676,0.319 c0.11,0.047,0.237,0.03,0.331-0.044s0.141-0.193,0.119-0.312C25.624,10.843,21.449,7.509,16.309,7.249z"/> <g> <path d="M15.663,0C7.013,0,0,7.013,0,15.664c0,8.651,7.013,15.662,15.663,15.662c8.649,0,15.663-7.013,15.663-15.663 C31.326,7.012,24.312,0,15.663,0z M15.663,28.326C8.681,28.326,3,22.645,3,15.663C3,8.68,8.681,3,15.663,3 c6.981,0,12.663,5.68,12.663,12.663C28.326,22.647,22.645,28.326,15.663,28.326z"/> </g> </g> </g> </g>

</svg>