<?xml version="1.0" encoding="UTF-8"?>
<svg version="1.1" xmlns="http://www.w3.org/2000/svg" width="300" height="300">
<path d="M0 0 C11.73042598 6.98439997 17.81836684 19.25800335 24 31 C27.39385081 26.07705157 30.5282249 21.10116386 33.4375 15.875 C39.93677459 4.77558949 48.88308524 -0.96102841 61 -5 C72.07172378 -6.04450224 81.83068279 -4.60409233 90.89453125 2.16015625 C97.1837166 7.67585468 101.88307925 13.4692094 105.875 20.8125 C109.73241548 27.78988388 113.71598268 34.68583037 117.75 41.5625 C122.53572744 49.72860163 127.24125007 57.93424858 131.875 66.1875 C135.808049 73.19139103 139.80184358 80.11611661 144.12109375 86.890625 C146.30909228 90.51151238 148.30998867 94.21549932 150.32446289 97.93505859 C153.30895995 103.39438776 156.40785054 108.78866309 159.5 114.1875 C159.84526733 114.79094238 160.19053467 115.39438477 160.54626465 116.01611328 C170.2008146 132.88642501 179.97451297 149.68117565 190.015625 166.32470703 C192.98967525 171.26967169 195.85646763 176.24968454 198.5625 181.34765625 C199.69735422 183.44158564 200.86276935 185.50199027 202.0625 187.55859375 C202.4244043 188.18072754 202.78630859 188.80286133 203.15917969 189.44384766 C204.19072713 191.21096139 205.22800367 192.97472716 206.265625 194.73828125 C209.79810898 201.38157882 210.36452954 206.91512176 210.375 214.3125 C210.39949219 215.21162109 210.42398437 216.11074219 210.44921875 217.03710938 C210.49621593 227.86995995 205.7209501 235.90531949 198.4453125 243.65625 C190.21746991 251.3723129 181.24851305 253.80397014 170.20898438 253.734375 C161.88774577 253.33843978 155.91850001 250.56226731 149 246 C147.96166016 245.36964844 147.96166016 245.36964844 146.90234375 244.7265625 C140.39733819 240.07377948 136.83299002 231.83244937 133 225 C132.14234183 223.48804591 131.28426393 221.97632984 130.42578125 220.46484375 C128.26698444 216.65250044 126.12851963 212.82932255 124 209 C124.01377686 209.57935303 124.02755371 210.15870605 124.04174805 210.75561523 C124.18128457 220.92079875 122.19670227 229.79305801 116 238 C114.824375 239.5778125 114.824375 239.5778125 113.625 241.1875 C107.48462948 247.76646841 99.36355632 252.85930437 90.23828125 253.63671875 C88.59699214 253.68551561 86.95445347 253.70163815 85.3125 253.6875 C84.00974121 253.67879883 84.00974121 253.67879883 82.68066406 253.66992188 C71.1725748 253.25360857 62.8780076 248.45000449 54.90576172 240.21777344 C51.84083993 236.65106199 49.65302804 232.75582844 47.4375 228.625 C46.41894621 226.78721834 45.3993624 224.95000728 44.37890625 223.11328125 C43.84152832 222.13697754 43.30415039 221.16067383 42.75048828 220.15478516 C39.85026054 214.92790331 36.87083286 209.74687104 33.88552856 204.56829834 C32.88676379 202.83293964 31.89342114 201.09446396 30.90014648 199.35595703 C30.29114502 198.29618652 29.68214355 197.23641602 29.0546875 196.14453125 C28.51312012 195.19940674 27.97155273 194.25428223 27.41357422 193.28051758 C26.06784702 190.91552951 26.06784702 190.91552951 24 189 C23.47212891 189.9429895 23.47212891 189.9429895 22.93359375 190.9050293 C10.93179752 212.31750289 10.93179752 212.31750289 4.69140625 222.21875 C2.99547769 225.00743623 1.49424449 227.84917336 0 230.75 C-4.50997629 239.11173983 -10.43723154 245.74192639 -19 250 C-20.03640625 250.52722656 -21.0728125 251.05445313 -22.140625 251.59765625 C-30.24237136 254.9930431 -41.4241013 254.36550628 -49.69140625 251.8984375 C-52.68091213 250.47049982 -55.30235184 248.91898946 -58 247 C-58.75539063 246.47019531 -59.51078125 245.94039062 -60.2890625 245.39453125 C-67.1349432 239.99731069 -71.80382442 232.41365894 -74 224 C-74.29874637 220.86998549 -74.32485264 217.76751272 -74.3125 214.625 C-74.32861328 213.81289062 -74.34472656 213.00078125 -74.36132812 212.1640625 C-74.36859118 203.09976432 -70.90779733 196.41957983 -66.5 188.6875 C-65.84632446 187.5262561 -65.84632446 187.5262561 -65.17944336 186.34155273 C-60.64377613 178.30982712 -56.01488209 170.33132514 -51.37353516 162.36035156 C-49.15979381 158.55614763 -46.95497234 154.74679101 -44.75 150.9375 C-44.09475342 149.80646851 -44.09475342 149.80646851 -43.42626953 148.65258789 C-40.62501574 143.81527902 -37.83180996 138.97338014 -35.04296875 134.12890625 C-34.35646035 132.93692168 -33.66993691 131.74494577 -32.98339844 130.55297852 C-31.63788025 128.21686513 -30.29370204 125.87999718 -28.95019531 123.54272461 C-28.3362793 122.47675049 -27.72236328 121.41077637 -27.08984375 120.3125 C-26.26794556 118.88357422 -26.26794556 118.88357422 -25.42944336 117.42578125 C-24.34321524 115.58244007 -23.18682488 113.78023732 -22 112 C-22.22248602 106.80865955 -24.44778579 103.05362316 -27.125 98.75 C-28.03150553 97.25224371 -28.93633979 95.75347511 -29.83984375 94.25390625 C-30.33983887 93.42777832 -30.83983398 92.60165039 -31.35498047 91.75048828 C-34.53365065 86.43572155 -37.60229901 81.05686994 -40.6875 75.6875 C-41.92018587 73.54535015 -43.15325011 71.40341797 -44.38671875 69.26171875 C-44.98009033 68.23054932 -45.57346191 67.19937988 -46.18481445 66.13696289 C-48.61119943 61.94373888 -51.07099525 57.77035371 -53.53662109 53.60009766 C-59.06435808 43.77854296 -59.68097431 32.54777662 -56.9375 21.625 C-53.46926047 11.85234375 -44.99079204 3.41034845 -35.875 -1.3125 C-23.57207974 -7.14714673 -11.99606606 -6.21961642 0 0 Z " fill="#4AB3FF" transform="translate(82,26)"/>
<path d="M0 0 C9.3739921 5.19710445 15.87945326 13.22099329 20.92578125 22.50390625 C24.78319673 29.48129013 28.76676393 36.37723662 32.80078125 43.25390625 C37.58650869 51.42000788 42.29203132 59.62565483 46.92578125 67.87890625 C50.85883025 74.88279728 54.85262483 81.80752286 59.171875 88.58203125 C61.35987353 92.20291863 63.36076992 95.90690557 65.37524414 99.62646484 C68.3597412 105.08579401 71.45863179 110.48006934 74.55078125 115.87890625 C74.89604858 116.48234863 75.24131592 117.08579102 75.5970459 117.70751953 C85.25159585 134.57783126 95.02529422 151.3725819 105.06640625 168.01611328 C108.0404565 172.96107794 110.90724888 177.94109079 113.61328125 183.0390625 C114.74813547 185.13299189 115.9135506 187.19339652 117.11328125 189.25 C117.6561377 190.18320068 117.6561377 190.18320068 118.20996094 191.13525391 C119.24150838 192.90236764 120.27878492 194.66613341 121.31640625 196.4296875 C124.84889023 203.07298507 125.41531079 208.60652801 125.42578125 216.00390625 C125.45027344 216.90302734 125.47476563 217.80214844 125.5 218.72851562 C125.54699718 229.5613662 120.77173135 237.59672574 113.49609375 245.34765625 C105.26825116 253.06371915 96.2992943 255.49537639 85.25976562 255.42578125 C76.93852702 255.02984603 70.96928126 252.25367356 64.05078125 247.69140625 C63.01244141 247.06105469 63.01244141 247.06105469 61.953125 246.41796875 C56.01904975 242.17355046 52.78326928 235.01884897 49.25976562 228.80175781 C48.04558026 226.68232762 46.79712297 224.58738067 45.53515625 222.49609375 C41.5198576 215.82423589 37.69098313 209.14103391 34.30078125 202.12890625 C29.42042819 192.07452187 23.63090018 182.54647447 17.95361328 172.92822266 C14.74592675 167.47178077 11.58555106 161.98819297 8.42578125 156.50390625 C7.48109985 154.86542725 7.48109985 154.86542725 6.51733398 153.19384766 C2.19423236 145.69029466 -2.10661155 138.17423364 -6.39770508 130.65234375 C-12.8734593 119.3082081 -19.41570066 108.00233292 -25.94921875 96.69140625 C-43.29268469 66.66613213 -43.29268469 66.66613213 -48.8527832 56.85424805 C-51.02783451 53.01943752 -53.22571524 49.21032823 -55.5390625 45.45703125 C-55.92843994 44.81411133 -56.31781738 44.17119141 -56.71899414 43.50878906 C-57.73841917 41.83249131 -58.77658108 40.16762652 -59.81640625 38.50390625 C-60.94921875 35.69140625 -60.94921875 35.69140625 -60.43359375 33.3671875 C-59.94375 32.48417969 -59.45390625 31.60117187 -58.94921875 30.69140625 C-58.6238916 30.04864746 -58.29856445 29.40588867 -57.96337891 28.74365234 C-46.4557349 6.08593226 -27.06752259 -11.60036683 0 0 Z " fill="#7B37FF" transform="translate(166.94921875,24.30859375)"/>
<path d="M0 0 C0.66 0 1.32 0 2 0 C2.60920288 1.06806885 2.60920288 1.06806885 3.23071289 2.15771484 C10.09348868 14.18656895 16.95766436 26.21443822 23.88452148 38.20654297 C25.12445417 40.35407199 26.36226126 42.50282973 27.59790039 44.65283203 C30.57077082 49.82183041 33.57134547 54.969607 36.640625 60.08203125 C37.20813477 61.03988525 37.77564453 61.99773926 38.36035156 62.98461914 C39.42160694 64.77449997 40.49570374 66.55685481 41.58496094 68.32983398 C43.53956236 71.65124003 44.94934179 74.06714753 45.16015625 77.94921875 C43.39037633 82.60308447 40.96838894 86.78411074 38.4375 91.0625 C37.89464355 91.99626465 37.35178711 92.9300293 36.79248047 93.89208984 C33.20297453 100.04051469 29.51247418 106.11902259 25.7265625 112.1484375 C24.02267114 114.96255672 22.50616446 117.826269 21 120.75 C16.49002371 129.11173983 10.56276846 135.74192639 2 140 C0.96359375 140.52722656 -0.0728125 141.05445313 -1.140625 141.59765625 C-9.24237136 144.9930431 -20.4241013 144.36550628 -28.69140625 141.8984375 C-31.68091213 140.47049982 -34.30235184 138.91898946 -37 137 C-37.75539063 136.47019531 -38.51078125 135.94039062 -39.2890625 135.39453125 C-46.1349432 129.99731069 -50.80382442 122.41365894 -53 114 C-53.29874637 110.86998549 -53.32485264 107.76751272 -53.3125 104.625 C-53.33666992 103.40683594 -53.33666992 103.40683594 -53.36132812 102.1640625 C-53.36859118 93.09976432 -49.90779733 86.41957983 -45.5 78.6875 C-45.06421631 77.9133374 -44.62843262 77.1391748 -44.17944336 76.34155273 C-39.64377613 68.30982712 -35.01488209 60.33132514 -30.37353516 52.36035156 C-28.15979389 48.55614777 -25.95492426 44.74681872 -23.75 40.9375 C-23.31244385 40.18202881 -22.8748877 39.42655762 -22.42407227 38.64819336 C-19.63716094 33.83470691 -16.85598979 29.01793078 -14.078125 24.19921875 C-13.74069275 23.6139592 -13.4032605 23.02869965 -13.05560303 22.42570496 C-11.38249113 19.5236536 -9.70990401 16.62130296 -8.03808594 13.71850586 C-7.42739258 12.65897705 -6.81669922 11.59944824 -6.1875 10.5078125 C-5.64480469 9.56566895 -5.10210937 8.62352539 -4.54296875 7.65283203 C-3.77919922 6.33968018 -3.77919922 6.33968018 -3 5 C-2.48050781 4.06140137 -1.96101563 3.12280273 -1.42578125 2.15576172 C-0.95527344 1.44436035 -0.48476563 0.73295898 0 0 Z " fill="#C933FF" transform="translate(61,136)"/>
<path d="M0 0 C3.17440814 2.92629249 5.2534503 5.84345489 7.36328125 9.6015625 C7.99500244 10.71805176 8.62672363 11.83454102 9.27758789 12.98486328 C9.95590002 14.19823766 10.63420384 15.41161669 11.3125 16.625 C12.02454459 17.88698773 12.73736621 19.14853733 13.45092773 20.40966797 C14.55093263 22.35403665 15.65044428 24.29866659 16.74757385 26.24465942 C20.30991392 32.56279061 23.93064999 38.84659227 27.5625 45.125 C28.78911618 47.24866691 30.01567848 49.37236495 31.2421875 51.49609375 C31.85288086 52.55296387 32.46357422 53.60983398 33.09277344 54.69873047 C36.45992626 60.52702546 39.82361698 66.3573174 43.1875 72.1875 C43.81148682 73.26854004 44.43547363 74.34958008 45.07836914 75.46337891 C46.22341508 77.44766376 47.36753039 79.43248606 48.51049805 81.41796875 C49.42394198 83.00141131 50.34118963 84.58267629 51.26489258 86.16015625 C56.29180529 94.78747149 56.72490973 102.24805935 55 112 C51.79995225 122.95452031 45.78934475 131.14366775 36 137 C29.76846763 140.36559545 24.38457526 141.74839458 17.3125 141.6875 C16.00974121 141.67879883 16.00974121 141.67879883 14.68066406 141.66992188 C3.1725748 141.25360857 -5.1219924 136.45000449 -13.09423828 128.21777344 C-16.15896448 124.65128961 -18.34820494 120.75627275 -20.5625 116.625 C-21.57916254 114.78038568 -22.59747511 112.93668009 -23.6171875 111.09375 C-24.1544043 110.11664063 -24.69162109 109.13953125 -25.24511719 108.1328125 C-27.13671619 104.7559346 -29.09416358 101.42146356 -31.0703125 98.09375 C-31.76119538 96.92378879 -32.45187001 95.75370458 -33.14233398 94.58349609 C-34.48114961 92.31465014 -35.83104709 90.05375684 -37.18774414 87.79541016 C-43.45049883 77.11930485 -43.45049883 77.11930485 -43 72 C-41.35339383 68.16887782 -39.2124528 64.7150209 -37 61.1875 C-35.69943139 59.03972183 -34.39999066 56.89126035 -33.1015625 54.7421875 C-32.08497559 53.07881348 -32.08497559 53.07881348 -31.04785156 51.38183594 C-27.73441888 45.91001077 -24.55805426 40.36082941 -21.375 34.8125 C-20.75536377 33.7390332 -20.13572754 32.66556641 -19.49731445 31.55957031 C-16.45910812 26.29563167 -13.44110252 21.02139323 -10.45703125 15.7265625 C-9.90418457 14.74840576 -9.35133789 13.77024902 -8.78173828 12.76245117 C-7.74282714 10.92152608 -6.70841722 9.07805124 -5.67919922 7.23168945 C-5.22174316 6.42175537 -4.76428711 5.61182129 -4.29296875 4.77734375 C-3.8961792 4.06827881 -3.49938965 3.35921387 -3.09057617 2.62866211 C-2 1 -2 1 0 0 Z " fill="#30CDFF" transform="translate(150,138)"/>
<path d="M0 0 C9.06750744 5.39887458 13.8375051 13.11806979 19 22 C19.55171875 22.89976563 20.1034375 23.79953125 20.671875 24.7265625 C23.06266892 28.74255902 24.46680514 31.22604908 24 36 C22.51586914 38.8684082 22.51586914 38.8684082 20.47265625 41.98828125 C19.73015831 43.14551 18.98948309 44.30390995 18.25048828 45.46337891 C17.87289368 46.05137268 17.49529907 46.63936646 17.10626221 47.24517822 C14.03605645 52.11532916 11.27520317 57.17989407 8.4375 62.1875 C7.04667895 64.63344249 5.65417643 67.07842646 4.26171875 69.5234375 C3.91106354 70.13961441 3.56040833 70.75579132 3.1991272 71.39064026 C-1.20966008 79.13340471 -5.669525 86.84659015 -10.12719727 94.5612793 C-13.09677341 99.70078801 -16.0613171 104.842757 -19 110 C-19.66 110 -20.32 110 -21 110 C-21.34144043 109.3922876 -21.68288086 108.7845752 -22.03466797 108.15844727 C-30.47248196 93.1425838 -30.47248196 93.1425838 -39.125 78.25 C-39.51743896 77.58427979 -39.90987793 76.91855957 -40.31420898 76.23266602 C-42.0190314 73.34333091 -43.727441 70.45631799 -45.44775391 67.57617188 C-46.95202673 65.05526174 -48.44526786 62.52805166 -49.9375 60 C-50.39850098 59.23461914 -50.85950195 58.46923828 -51.33447266 57.68066406 C-58.01790357 46.30471681 -60.21911742 34.69032153 -56.9375 21.625 C-53.46926047 11.85234375 -44.99079204 3.41034845 -35.875 -1.3125 C-23.57207974 -7.14714673 -11.99606606 -6.21961642 0 0 Z " fill="#30CDFF" transform="translate(82,26)"/>
<path d="M0 0 C0.33 0.66 0.66 1.32 1 2 C0.40102514 3.37553523 -0.25648 4.72568296 -0.9375 6.0625 C-4.0968265 13.43426182 -3.32796052 21.14716753 -3 29 C-8.68396226 21.9245283 -8.68396226 21.9245283 -10 19 C-8.64889561 14.57748971 -6.1917367 10.66197233 -3.875 6.6875 C-3.50246094 6.04232422 -3.12992187 5.39714844 -2.74609375 4.73242188 C-1.83367787 3.15324055 -0.91724491 1.57638136 0 0 Z " fill="#C135FF" transform="translate(116,41)"/>
</svg>
