<?xml version="1.0" encoding="UTF-8"?>
<svg version="1.1" xmlns="http://www.w3.org/2000/svg" width="512" height="512">
<path d="M0 0 C2.77392801 -0.00242917 5.54784132 -0.00931693 8.32176208 -0.01593018 C15.01533602 -0.02913727 21.70880797 -0.02644877 28.40238559 -0.01769225 C33.85168524 -0.01086405 39.30095668 -0.01002091 44.7502594 -0.0132637 C45.53148046 -0.0137234 46.31270152 -0.0141831 47.11759594 -0.01465673 C48.70557385 -0.01561609 50.29355174 -0.01658873 51.88152963 -0.0175745 C66.70561515 -0.02609023 81.52964464 -0.01635463 96.35372096 -0.0001734 C109.02083547 0.01322628 121.68786745 0.01089711 134.35498047 -0.00292969 C149.13292974 -0.01905346 163.91083014 -0.02526662 178.68878698 -0.0160929 C180.27030277 -0.01513744 181.85181855 -0.01419432 183.43333435 -0.0132637 C184.59995985 -0.01256946 184.59995985 -0.01256946 185.79015353 -0.0118612 C191.22083734 -0.0092916 196.65148965 -0.01359797 202.08216858 -0.02070236 C208.71763815 -0.02919365 215.35300153 -0.02667958 221.98845923 -0.01086013 C225.36161201 -0.00307827 228.73444607 -0.00137678 232.10761833 -0.00980759 C271.03675716 -0.0980507 304.00965706 5.00051751 332.71679688 33.01318359 C360.91183496 61.36770339 364.07526111 97.67451242 363.97998047 135.79638672 C363.98240964 138.57031473 363.9892974 141.34422804 363.99591064 144.1181488 C364.00911774 150.81172274 364.00642924 157.50519469 363.99767272 164.19877231 C363.99084452 169.64807196 363.99000138 175.0973434 363.99324417 180.54664612 C363.99370387 181.32786718 363.99416357 182.10908824 363.9946372 182.91398266 C363.99559656 184.50196056 363.9965692 186.08993846 363.99755497 187.67791635 C364.0060707 202.50200187 363.9963351 217.32603136 363.98015387 232.15010768 C363.96675419 244.81722219 363.96908336 257.48425416 363.98291016 270.15136719 C363.99903392 284.92931646 364.00524709 299.70721686 363.99607337 314.4851737 C363.99511791 316.06668948 363.99417479 317.64820527 363.99324417 319.22972107 C363.99278134 320.0074714 363.99231852 320.78522173 363.99184167 321.58654025 C363.98927206 327.01722406 363.99357843 332.44787637 364.00068283 337.8785553 C364.00917412 344.51402486 364.00666005 351.14938825 363.9908406 357.78484595 C363.98305874 361.15799873 363.98135725 364.53083279 363.98978806 367.90400505 C364.07803117 406.83314388 358.97946296 439.80604378 330.96679688 468.51318359 C302.61227708 496.70822168 266.30546805 499.87164783 228.18359375 499.77636719 C225.40966574 499.77879636 222.63575243 499.78568412 219.86183167 499.79229736 C213.16825773 499.80550445 206.47478578 499.80281596 199.78120816 499.79405944 C194.33190851 499.78723124 188.88263707 499.7863881 183.43333435 499.78963089 C182.65211329 499.79009059 181.87089223 499.79055029 181.06599781 499.79102392 C179.4780199 499.79198328 177.89004201 499.79295592 176.30206412 499.79394169 C161.4779786 499.80245742 146.65394911 499.79272182 131.82987279 499.77654059 C119.16275828 499.76314091 106.4957263 499.76547008 93.82861328 499.77929688 C79.05066401 499.79542064 64.27276361 499.80163381 49.49480677 499.79246008 C47.91329098 499.79150463 46.3317752 499.79056151 44.7502594 499.78963089 C43.97250907 499.78916806 43.19475874 499.78870524 42.39344022 499.78822839 C36.96275641 499.78565878 31.5321041 499.78996515 26.10142517 499.79706955 C19.4659556 499.80556084 12.83059222 499.80304677 6.19513452 499.78722732 C2.82198174 499.77944546 -0.55085232 499.77774397 -3.92402458 499.78617477 C-42.85316341 499.87441789 -75.82606331 494.77584968 -104.53320312 466.76318359 C-132.72824121 438.4086638 -135.89166736 402.10185477 -135.79638672 363.97998047 C-135.79881589 361.20605246 -135.80570365 358.43213915 -135.81231689 355.65821838 C-135.82552399 348.96464445 -135.82283549 342.2711725 -135.81407897 335.57759488 C-135.80725077 330.12829523 -135.80640763 324.67902378 -135.80965042 319.22972107 C-135.81011012 318.44850001 -135.81056982 317.66727895 -135.81104345 316.86238453 C-135.81200281 315.27440662 -135.81297545 313.68642873 -135.81396122 312.09845084 C-135.82247695 297.27436532 -135.81274135 282.45033583 -135.79656012 267.62625951 C-135.78316044 254.959145 -135.78548961 242.29211302 -135.79931641 229.625 C-135.81544017 214.84705073 -135.82165334 200.06915033 -135.81247962 185.29119349 C-135.81152416 183.7096777 -135.81058104 182.12816191 -135.80965042 180.54664612 C-135.80918759 179.76889579 -135.80872477 178.99114546 -135.80824792 178.18982694 C-135.80567831 172.75914313 -135.80998468 167.32849081 -135.81708908 161.89781189 C-135.82558037 155.26234232 -135.8230663 148.62697894 -135.80724685 141.99152124 C-135.79946499 138.61836846 -135.7977635 135.2455344 -135.80619431 131.87236214 C-135.89443742 92.94322331 -130.79586921 59.9703234 -102.78320312 31.26318359 C-74.42868333 3.06814551 -38.1218743 -0.09528064 0 0 Z " fill="#23C890" transform="translate(142.408203125,6.61181640625)"/>
<path d="M0 0 C99.23678571 0 99.23678571 0 114.99609375 14.80078125 C123.23147444 23.83883062 126.57591661 34.33934602 126.4375 46.375 C126.42992676 47.29893555 126.42235352 48.22287109 126.41455078 49.17480469 C126.24787408 56.07789673 125.36621921 61.8757881 122 68 C121.57589844 68.7940625 121.15179688 69.588125 120.71484375 70.40625 C116.15914905 78.02022442 109.53407514 82.57753762 102 87 C102.61746094 87.32871094 103.23492187 87.65742188 103.87109375 87.99609375 C116.34160368 95.00007878 124.0061228 103.99983285 128.13671875 117.796875 C131.83892005 133.62083016 128.50858758 149.54290874 120.04296875 163.20703125 C114.25043025 171.12608485 106.97524909 176.24397139 98 180 C97.22269531 180.35191406 96.44539063 180.70382812 95.64453125 181.06640625 C65.57525215 191.68170566 31.88802482 183 0 183 C0 122.61 0 62.22 0 0 Z " fill="#FBFEFD" transform="translate(199,166)"/>
<path d="M0 0 C2.77392801 -0.00242917 5.54784132 -0.00931693 8.32176208 -0.01593018 C15.01533602 -0.02913727 21.70880797 -0.02644877 28.40238559 -0.01769225 C33.85168524 -0.01086405 39.30095668 -0.01002091 44.7502594 -0.0132637 C45.53148046 -0.0137234 46.31270152 -0.0141831 47.11759594 -0.01465673 C48.70557385 -0.01561609 50.29355174 -0.01658873 51.88152963 -0.0175745 C66.70561515 -0.02609023 81.52964464 -0.01635463 96.35372096 -0.0001734 C109.02083547 0.01322628 121.68786745 0.01089711 134.35498047 -0.00292969 C149.13292974 -0.01905346 163.91083014 -0.02526662 178.68878698 -0.0160929 C180.27030277 -0.01513744 181.85181855 -0.01419432 183.43333435 -0.0132637 C184.59995985 -0.01256946 184.59995985 -0.01256946 185.79015353 -0.0118612 C191.22083734 -0.0092916 196.65148965 -0.01359797 202.08216858 -0.02070236 C208.71763815 -0.02919365 215.35300153 -0.02667958 221.98845923 -0.01086013 C225.36161201 -0.00307827 228.73444607 -0.00137678 232.10761833 -0.00980759 C271.03675716 -0.0980507 304.00965706 5.00051751 332.71679688 33.01318359 C360.91183496 61.36770339 364.07526111 97.67451242 363.97998047 135.79638672 C363.98240964 138.57031473 363.9892974 141.34422804 363.99591064 144.1181488 C364.00911774 150.81172274 364.00642924 157.50519469 363.99767272 164.19877231 C363.99084452 169.64807196 363.99000138 175.0973434 363.99324417 180.54664612 C363.99370387 181.32786718 363.99416357 182.10908824 363.9946372 182.91398266 C363.99559656 184.50196056 363.9965692 186.08993846 363.99755497 187.67791635 C364.0060707 202.50200187 363.9963351 217.32603136 363.98015387 232.15010768 C363.96675419 244.81722219 363.96908336 257.48425416 363.98291016 270.15136719 C363.99903392 284.92931646 364.00524709 299.70721686 363.99607337 314.4851737 C363.99511791 316.06668948 363.99417479 317.64820527 363.99324417 319.22972107 C363.99278134 320.0074714 363.99231852 320.78522173 363.99184167 321.58654025 C363.98927206 327.01722406 363.99357843 332.44787637 364.00068283 337.8785553 C364.00917412 344.51402486 364.00666005 351.14938825 363.9908406 357.78484595 C363.98305874 361.15799873 363.98135725 364.53083279 363.98978806 367.90400505 C364.07803117 406.83314388 358.97946296 439.80604378 330.96679688 468.51318359 C302.61227708 496.70822168 266.30546805 499.87164783 228.18359375 499.77636719 C225.40966574 499.77879636 222.63575243 499.78568412 219.86183167 499.79229736 C213.16825773 499.80550445 206.47478578 499.80281596 199.78120816 499.79405944 C194.33190851 499.78723124 188.88263707 499.7863881 183.43333435 499.78963089 C182.65211329 499.79009059 181.87089223 499.79055029 181.06599781 499.79102392 C179.4780199 499.79198328 177.89004201 499.79295592 176.30206412 499.79394169 C161.4779786 499.80245742 146.65394911 499.79272182 131.82987279 499.77654059 C119.16275828 499.76314091 106.4957263 499.76547008 93.82861328 499.77929688 C79.05066401 499.79542064 64.27276361 499.80163381 49.49480677 499.79246008 C47.91329098 499.79150463 46.3317752 499.79056151 44.7502594 499.78963089 C43.97250907 499.78916806 43.19475874 499.78870524 42.39344022 499.78822839 C36.96275641 499.78565878 31.5321041 499.78996515 26.10142517 499.79706955 C19.4659556 499.80556084 12.83059222 499.80304677 6.19513452 499.78722732 C2.82198174 499.77944546 -0.55085232 499.77774397 -3.92402458 499.78617477 C-42.85316341 499.87441789 -75.82606331 494.77584968 -104.53320312 466.76318359 C-132.72824121 438.4086638 -135.89166736 402.10185477 -135.79638672 363.97998047 C-135.79881589 361.20605246 -135.80570365 358.43213915 -135.81231689 355.65821838 C-135.82552399 348.96464445 -135.82283549 342.2711725 -135.81407897 335.57759488 C-135.80725077 330.12829523 -135.80640763 324.67902378 -135.80965042 319.22972107 C-135.81011012 318.44850001 -135.81056982 317.66727895 -135.81104345 316.86238453 C-135.81200281 315.27440662 -135.81297545 313.68642873 -135.81396122 312.09845084 C-135.82247695 297.27436532 -135.81274135 282.45033583 -135.79656012 267.62625951 C-135.78316044 254.959145 -135.78548961 242.29211302 -135.79931641 229.625 C-135.81544017 214.84705073 -135.82165334 200.06915033 -135.81247962 185.29119349 C-135.81152416 183.7096777 -135.81058104 182.12816191 -135.80965042 180.54664612 C-135.80918759 179.76889579 -135.80872477 178.99114546 -135.80824792 178.18982694 C-135.80567831 172.75914313 -135.80998468 167.32849081 -135.81708908 161.89781189 C-135.82558037 155.26234232 -135.8230663 148.62697894 -135.80724685 141.99152124 C-135.79946499 138.61836846 -135.7977635 135.2455344 -135.80619431 131.87236214 C-135.89443742 92.94322331 -130.79586921 59.9703234 -102.78320312 31.26318359 C-74.42868333 3.06814551 -38.1218743 -0.09528064 0 0 Z M-103.78027344 44.51025391 C-117.059612 59.82889101 -123.84695203 78.40454682 -126.07342529 98.39263916 C-126.19986129 99.51859757 -126.32629728 100.64455597 -126.45656466 101.80463433 C-127.75414035 114.30996206 -127.81539193 126.75719278 -127.76464844 139.31689453 C-127.76544198 141.89583912 -127.76754737 144.47478359 -127.77084351 147.0537262 C-127.77640244 153.25928464 -127.76630699 159.46471668 -127.75055555 165.67025366 C-127.73278907 172.93036698 -127.73159156 180.1904577 -127.73093995 187.45058933 C-127.72926164 200.4208624 -127.71356584 213.39107895 -127.68945312 226.36132812 C-127.66618567 238.88639801 -127.65202421 251.41143211 -127.6484375 263.93652344 C-127.64821473 264.70880758 -127.64799197 265.48109173 -127.64776245 266.27677843 C-127.64731977 267.83308365 -127.64687775 269.38938888 -127.64643638 270.9456941 C-127.64621681 271.71379781 -127.64599725 272.48190152 -127.64577103 273.2732811 C-127.64555504 274.03971152 -127.64533905 274.80614194 -127.64511652 275.59579752 C-127.64139767 287.62123432 -127.63004141 299.64666551 -127.61764063 311.67209606 C-127.61324011 315.99715754 -127.60978779 320.32221851 -127.6070185 324.64728132 C-127.60212487 332.15788965 -127.59189263 339.66846626 -127.57619095 347.17905998 C-127.57171958 349.65640205 -127.56884176 352.13374765 -127.56778336 354.61109352 C-127.56170671 366.24007548 -127.47850395 377.85279274 -126.98016357 389.47247314 C-126.94416589 390.34456885 -126.90816821 391.21666456 -126.87107968 392.11518741 C-125.73113251 415.58573751 -118.60809156 438.87780504 -102.40820312 456.38818359 C-101.95493652 456.88769531 -101.50166992 457.38720703 -101.03466797 457.90185547 C-83.78061198 476.74502642 -62.88655936 487.21487579 -37.40374756 490.05340576 C-35.71480995 490.24305975 -35.71480995 490.24305975 -33.99175239 490.43654513 C-21.48642466 491.73412082 -9.03919394 491.7953724 3.52050781 491.74462891 C6.09945241 491.74542245 8.67839687 491.74752784 11.25733948 491.75082397 C17.46289793 491.75638291 23.66832997 491.74628745 29.87386695 491.73053601 C37.13398026 491.71276954 44.39407098 491.71157203 51.65420261 491.71092042 C64.62447568 491.70924211 77.59469223 491.69354631 90.56494141 491.66943359 C103.09001129 491.64616614 115.61504539 491.63200468 128.14013672 491.62841797 C128.91242087 491.6281952 129.68470501 491.62797243 130.48039171 491.62774292 C132.03669694 491.62730024 133.59300216 491.62685822 135.14930739 491.62641685 C135.91741109 491.62619728 136.6855148 491.62597771 137.47689438 491.6257515 C138.62654001 491.62542752 138.62654001 491.62542752 139.79941081 491.62509699 C151.8248476 491.62137814 163.8502788 491.61002188 175.87570934 491.5976211 C180.20077082 491.59322057 184.52583179 491.58976826 188.8508946 491.58699897 C196.36150293 491.58210534 203.87207954 491.5718731 211.38267326 491.55617142 C213.86001533 491.55170005 216.33736093 491.54882223 218.8147068 491.54776382 C230.44368876 491.54168718 242.05640602 491.45848442 253.67608643 490.96014404 C254.54818213 490.92414636 255.42027784 490.88814867 256.31880069 490.85106015 C279.7883054 489.71116375 303.08289367 482.58879038 320.59179688 466.38818359 C321.09662598 465.92959961 321.60145508 465.47101563 322.12158203 464.99853516 C343.06752396 445.79860619 353.69314466 420.36581568 355.0601666 392.09870791 C355.0956406 391.22818325 355.1311146 390.35765859 355.16766357 389.46075439 C355.2080452 388.51345687 355.24842683 387.56615935 355.29003215 386.59015584 C355.75208755 374.7219803 355.74785612 362.85245981 355.75292969 350.97705078 C355.75757166 348.40518627 355.7625981 345.83332243 355.76797485 343.26145935 C355.78139115 336.34181727 355.78755494 329.42218109 355.79198551 322.50252819 C355.79477375 318.16336893 355.79901509 313.82421182 355.80348969 309.48505402 C355.81565511 297.41446448 355.82596319 285.34387662 355.82936478 273.2732811 C355.82958434 272.50517739 355.82980391 271.73707368 355.83003013 270.9456941 C355.83024841 270.17603303 355.83046668 269.40637196 355.83069158 268.61338782 C355.831135 267.05443303 355.83158157 265.49547823 355.83203125 263.93652344 C355.83225268 263.16327163 355.83247411 262.39001982 355.83270225 261.59333614 C355.83664855 249.07044452 355.85410978 236.54761112 355.87739077 224.02474198 C355.90123114 211.09431578 355.91357217 198.16391869 355.91473269 185.2334702 C355.91564179 178.00283059 355.92119892 170.77226717 355.93955231 163.54164886 C355.95677153 156.73535973 355.95811241 149.92921618 355.9494133 143.12291145 C355.94865154 140.64724655 355.95286949 138.17157339 355.96287155 135.69592857 C356.10532283 98.19288097 352.14203005 65.18835435 324.90429688 37.20068359 C305.73004557 18.13018906 280.24824465 9.89561362 253.66436768 8.81231689 C252.71707015 8.77193527 251.76977263 8.73155364 250.79376912 8.68994832 C238.92559358 8.22789292 227.05607309 8.23212434 215.18066406 8.22705078 C212.60879955 8.22240881 210.03693571 8.21738236 207.46507263 8.21200562 C200.54543055 8.19858932 193.62579438 8.19242553 186.70614147 8.18799496 C182.36698222 8.18520672 178.0278251 8.18096538 173.6886673 8.17649078 C161.61807776 8.16432536 149.5474899 8.15401728 137.47689438 8.15061569 C136.70879067 8.15039613 135.94068696 8.15017656 135.14930739 8.14995034 C134.37964631 8.14973206 133.60998524 8.14951378 132.8170011 8.14928889 C131.25804631 8.14884547 129.69909151 8.1483989 128.14013672 8.14794922 C126.980259 8.14761707 126.980259 8.14761707 125.79694942 8.14727822 C113.2740578 8.14333192 100.7512244 8.12587069 88.22835526 8.1025897 C75.29792906 8.07874933 62.36753197 8.0664083 49.43708348 8.06524777 C42.20644387 8.06433868 34.97588045 8.05878155 27.74526215 8.04042816 C20.93897302 8.02320894 14.13282946 8.02186806 7.32652473 8.03056717 C4.85085983 8.03132893 2.37518667 8.02711097 -0.10045815 8.01710892 C-40.63184215 7.86315483 -75.23881019 13.35779344 -103.78027344 44.51025391 Z " fill="#FDFEFE" transform="translate(142.408203125,6.61181640625)"/>
<path d="M0 0 C9.796875 -0.103125 19.59375 -0.20625 29.6875 -0.3125 C34.28691528 -0.38078003 34.28691528 -0.38078003 38.97924805 -0.45043945 C41.44839387 -0.46506194 43.91755188 -0.47779842 46.38671875 -0.48828125 C47.63731079 -0.51386108 48.88790283 -0.53944092 50.1763916 -0.5657959 C61.15623383 -0.57115977 71.5814113 2.1029398 80.21875 9.203125 C89.26855552 18.33231478 91.4025095 27.42900127 91.36791992 39.85620117 C91.17752339 49.16577931 88.72798219 56.42492649 82 63 C72.03775229 70.64646206 62.1709679 71.43534328 49.90234375 71.29296875 C48.63362427 71.28994751 47.36490479 71.28692627 46.05773926 71.28381348 C41.35090924 71.26820233 36.64419583 71.22631882 31.9375 71.1875 C21.398125 71.125625 10.85875 71.06375 0 71 C0 47.57 0 24.14 0 0 Z " fill="#24C890" transform="translate(218,261)"/>
<path d="M0 0 C9.6525 -0.061875 19.305 -0.12375 29.25 -0.1875 C33.78476074 -0.22846802 33.78476074 -0.22846802 38.41113281 -0.27026367 C40.84179283 -0.27903605 43.27245729 -0.2866782 45.703125 -0.29296875 C46.93724121 -0.30831665 48.17135742 -0.32366455 49.44287109 -0.33947754 C60.90474908 -0.34289288 72.23786901 0.94784405 81 9 C88.75830045 18.57511764 89.15456649 28.05538881 88 40 C86.99351519 43.736268 85.56947959 46.13427453 83 49 C82.37996094 49.71414062 81.75992188 50.42828125 81.12109375 51.1640625 C73.70476857 58.67599408 64.28914692 61.13150305 53.92456055 61.45410156 C51.41185772 61.45311956 48.89908544 61.43173572 46.38671875 61.390625 C45.2006604 61.38659668 44.01460205 61.38256836 42.79260254 61.37841797 C38.42407433 61.35772133 34.05576918 61.30187886 29.6875 61.25 C14.9921875 61.12625 14.9921875 61.12625 0 61 C0 40.87 0 20.74 0 0 Z " fill="#23C890" transform="translate(218,183)"/>
<path d="M0 0 C2.64 0 5.28 0 8 0 C8 10.23 8 20.46 8 31 C5.36 31 2.72 31 0 31 C0 20.77 0 10.54 0 0 Z " fill="#F2FBF8" transform="translate(253,411)"/>
<path d="M0 0 C2.64 0 5.28 0 8 0 C8 10.23 8 20.46 8 31 C5.36 31 2.72 31 0 31 C0 20.77 0 10.54 0 0 Z " fill="#F2FBF8" transform="translate(253,73)"/>
<path d="M0 0 C3.46629835 1.48653506 5.69022036 3.45722351 8.328125 6.1328125 C9.12734375 6.93847656 9.9265625 7.74414062 10.75 8.57421875 C11.575 9.41597656 12.4 10.25773437 13.25 11.125 C14.09046875 11.97449219 14.9309375 12.82398438 15.796875 13.69921875 C17.86915683 15.79504923 19.93662393 17.89540713 22 20 C20.48601545 23.78496138 19.9855604 24.0072198 16 26 C9.4 19.4 2.8 12.8 -4 6 C-2 2 -2 2 0 0 Z " fill="#F7FCFA" transform="translate(368,364)"/>
<path d="M0 0 C4 2 4 2 6 6 C-0.6 12.6 -7.2 19.2 -14 26 C-18 24 -18 24 -20 20 C-13.4 13.4 -6.8 6.8 0 0 Z " fill="#F7FCFA" transform="translate(144,364)"/>
<path d="M0 0 C4 2 4 2 6 6 C-0.6 12.6 -7.2 19.2 -14 26 C-18 24 -18 24 -20 20 C-13.4 13.4 -6.8 6.8 0 0 Z " fill="#F7FCFA" transform="translate(384,125)"/>
<path d="M0 0 C3.46629835 1.48653506 5.69022036 3.45722351 8.328125 6.1328125 C9.12734375 6.93847656 9.9265625 7.74414062 10.75 8.57421875 C11.575 9.41597656 12.4 10.25773438 13.25 11.125 C14.09046875 11.97449219 14.9309375 12.82398438 15.796875 13.69921875 C17.86915683 15.79504923 19.93662393 17.89540713 22 20 C20.48601545 23.78496138 19.9855604 24.0072198 16 26 C9.4 19.4 2.8 12.8 -4 6 C-2 2 -2 2 0 0 Z " fill="#F7FCFA" transform="translate(128,125)"/>
<path d="M0 0 C10.23 0 20.46 0 31 0 C31 2.31 31 4.62 31 7 C20.77 7 10.54 7 0 7 C0 4.69 0 2.38 0 0 Z " fill="#FCFEFD" transform="translate(411,254)"/>
<path d="M0 0 C10.23 0 20.46 0 31 0 C31 2.31 31 4.62 31 7 C20.77 7 10.54 7 0 7 C0 4.69 0 2.38 0 0 Z " fill="#FCFEFD" transform="translate(72,254)"/>
</svg>
